<?xml version="1.0" encoding="UTF-8" standalone="no"?>
<!-- Created with Inkscape (http://www.inkscape.org/) -->

<svg
   xmlns:dc="http://purl.org/dc/elements/1.1/"
   xmlns:cc="http://creativecommons.org/ns#"
   xmlns:rdf="http://www.w3.org/1999/02/22-rdf-syntax-ns#"
   xmlns:svg="http://www.w3.org/2000/svg"
   xmlns="http://www.w3.org/2000/svg"
   xmlns:sodipodi="http://sodipodi.sourceforge.net/DTD/sodipodi-0.dtd"
   xmlns:inkscape="http://www.inkscape.org/namespaces/inkscape"
   version="1.1"
   id="svg10"
   width="1.25in"
   height="1.25in"
   viewBox="0 0 120 119.99999"
   sodipodi:docname="icon.svg"
   inkscape:version="0.92.4 (5da689c313, 2019-01-14)">
  <metadata
     id="metadata16">
    <rdf:RDF>
      <cc:Work
         rdf:about="">
        <dc:format>image/svg+xml</dc:format>
        <dc:type
           rdf:resource="http://purl.org/dc/dcmitype/StillImage" />
        <dc:title></dc:title>
      </cc:Work>
    </rdf:RDF>
  </metadata>
  <defs
     id="defs14" />
  <sodipodi:namedview
     pagecolor="#ffffff"
     bordercolor="#666666"
     borderopacity="1"
     objecttolerance="10"
     gridtolerance="10"
     guidetolerance="10"
     inkscape:pageopacity="0"
     inkscape:pageshadow="2"
     inkscape:window-width="3840"
     inkscape:window-height="2066"
     id="namedview12"
     showgrid="false"
     fit-margin-top="0.1"
     fit-margin-left="0.3"
     fit-margin-right="0.3"
     fit-margin-bottom="0.1"
     units="in"
     inkscape:zoom="5.6568543"
     inkscape:cx="-70.652325"
     inkscape:cy="59.21633"
     inkscape:window-x="-11"
     inkscape:window-y="-11"
     inkscape:window-maximized="1"
     inkscape:current-layer="svg10" />
  <path
     style="fill:#0071c0;fill-opacity:0.91860465;stroke:none;stroke-width:1px;stroke-linecap:butt;stroke-linejoin:miter;stroke-opacity:1"
     d="M 77.872014,5.420648 45.207952,37.885492 25.45014,22.696039 l -8.042969,2.779297 19.857422,19.857422 -19.955078,19.160161 8.537109,3.27734 19.458985,-14.595704 31.671875,31.970704 20.154291,-8.339835 0.0996,-62.648448 z m -1.19141,23.841797 0.21094,32.013674 -20.640623,-16.11133 z"
     id="path40"
     inkscape:connector-curvature="0" />
  <path
     style="fill:#e1c700;fill-opacity:1;stroke:none;stroke-width:1px;stroke-linecap:butt;stroke-linejoin:miter;stroke-opacity:1"
     d="M 7.6275158,92.118668 16.463699,87.05524 41.036231,101.2527 66.353389,86.85667 75.090286,92.217948 41.780853,112.52132 Z"
     id="path4555"
     inkscape:connector-curvature="0" />
  <path
     style="fill:#0091bd;fill-opacity:1;stroke:none;stroke-width:1px;stroke-linecap:butt;stroke-linejoin:miter;stroke-opacity:1"
     d="m 95.593265,83.570695 c -6.07212,-0.0173 -13.378565,4.230533 -13.560915,13.296783 -0.18235,9.066252 4.54183,15.751502 13.390635,15.740252 5.230725,-0.007 6.177065,-0.90484 8.724605,-4.04883 -0.01,1.74621 -0.0319,3.0911 -0.002,4.0293 l 6.24805,0.0195 0.0123,-28.991265 -6.23319,0.0118 0.0119,3.110351 c -1.84963,-2.611831 -4.15809,-3.155271 -8.591395,-3.167891 z m 0.81018,5.392493 c 5.642435,-0.003 8.036495,4.17976 7.957035,9.10548 -0.0795,4.925702 -2.33015,8.822342 -7.822265,9.042962 -5.49213,0.22062 -8.276755,-4.57173 -8.251945,-9.312512 0.0248,-4.74077 2.474745,-8.83329 8.117175,-8.83593 z"
     id="path4568"
     inkscape:connector-curvature="0"
     sodipodi:nodetypes="sssccccccsccscc" />
</svg>
